<svg width="24" height="25" viewBox="0 0 24 25" fill="none" xmlns="http://www.w3.org/2000/svg">
<path d="M18.14 22.0819C17.26 22.3419 16.22 22.4619 15 22.4619H8.99998C7.77998 22.4619 6.73999 22.3419 5.85999 22.0819C6.07999 19.4819 8.74998 17.4319 12 17.4319C15.25 17.4319 17.92 19.4819 18.14 22.0819Z" stroke="#00E6F6" stroke-width="2" stroke-linecap="round" stroke-linejoin="round"/>
<path d="M15 2.46191H9C4 2.46191 2 4.46191 2 9.46191V15.4619C2 19.2419 3.14 21.3119 5.86 22.0819C6.08 19.4819 8.75 17.4319 12 17.4319C15.25 17.4319 17.92 19.4819 18.14 22.0819C20.86 21.3119 22 19.2419 22 15.4619V9.46191C22 4.46191 20 2.46191 15 2.46191ZM12 14.6319C10.02 14.6319 8.42 13.0219 8.42 11.0419C8.42 9.06193 10.02 7.46191 12 7.46191C13.98 7.46191 15.58 9.06193 15.58 11.0419C15.58 13.0219 13.98 14.6319 12 14.6319Z" stroke="#00E6F6" stroke-width="2" stroke-linecap="round" stroke-linejoin="round"/>
<path d="M15.58 11.0419C15.58 13.0219 13.98 14.6319 12 14.6319C10.02 14.6319 8.42004 13.0219 8.42004 11.0419C8.42004 9.06193 10.02 7.46191 12 7.46191C13.98 7.46191 15.58 9.06193 15.58 11.0419Z" stroke="#00E6F6" stroke-width="2" stroke-linecap="round" stroke-linejoin="round"/>
</svg>
