<?xml version="1.0" standalone="no"?>
<!DOCTYPE svg PUBLIC "-//W3C//DTD SVG 20010904//EN"
 "http://www.w3.org/TR/2001/REC-SVG-20010904/DTD/svg10.dtd">
<svg version="1.0" xmlns="http://www.w3.org/2000/svg"
 width="52.000000pt" height="52.000000pt" viewBox="0 0 52.000000 52.000000"
 preserveAspectRatio="xMidYMid meet">

<g transform="translate(0.000000,52.000000) scale(0.100000,-0.100000)"
fill="#000000" stroke="none">
<path d="M49 471 l-29 -29 0 -180 c0 -162 2 -182 19 -203 l19 -24 7 30 c12 56
36 101 64 119 19 13 27 26 24 40 -3 18 -2 17 9 -3 10 -19 10 -25 1 -28 -37
-13 -91 -83 -63 -83 5 0 11 8 13 18 4 16 5 16 6 -1 0 -10 6 -15 11 -12 13 8
13 -11 0 -36 -14 -26 -30 -24 -30 4 0 17 -2 19 -9 7 -6 -8 -8 -17 -5 -21 2 -4
0 -11 -6 -14 -8 -5 -7 -11 1 -21 17 -21 336 -20 366 1 21 15 22 52 2 39 -6 -3
-7 5 -3 19 9 40 -2 61 -51 91 -24 16 -42 32 -39 37 2 5 12 2 22 -7 9 -8 31
-26 48 -39 17 -13 36 -42 44 -64 7 -22 17 -38 21 -35 5 3 9 86 9 185 l0 181
-29 29 -29 29 -182 0 -182 0 -29 -29z m292 -50 c21 -19 39 -39 39 -46 0 -7 15
-20 33 -29 l32 -16 -30 0 c-17 0 -37 6 -44 13 -10 10 -11 8 -5 -8 6 -16 5 -18
-7 -7 -7 6 -36 12 -65 12 -34 0 -56 5 -64 15 -10 12 -10 15 0 15 8 0 11 2 8 5
-3 3 -16 1 -29 -4 -17 -7 -19 -10 -6 -10 26 -1 21 -21 -6 -21 -13 0 -27 -4
-32 -8 -6 -5 -21 -3 -35 4 -19 10 -20 14 -7 14 9 0 17 6 17 13 0 20 77 95 102
99 33 6 54 -4 99 -41z m-11 -101 c0 -5 -7 -10 -15 -10 -8 0 -15 5 -15 10 0 6
7 10 15 10 8 0 15 -4 15 -10z m-117 -7 c-7 -2 -19 -2 -25 0 -7 3 -2 5 12 5 14
0 19 -2 13 -5z m65 -21 c2 -7 -6 -12 -17 -12 -22 0 -28 -14 -10 -25 5 -4 18 0
28 9 12 11 20 13 28 5 8 -8 18 -6 37 6 27 18 30 17 20 -9 -3 -9 -17 -16 -31
-16 -13 0 -22 -4 -19 -9 8 -12 -24 -19 -61 -14 -25 4 -31 10 -30 27 4 40 44
69 55 38z m-93 -23 c12 -19 -5 -23 -22 -6 -16 16 -16 17 -1 17 9 0 20 -5 23
-11z m185 -128 c0 -5 -7 -12 -16 -15 -14 -5 -15 -4 -4 9 14 17 20 19 20 6z
m47 -33 c2 -20 -11 -37 -28 -38 -3 0 -4 13 -1 30 5 35 27 41 29 8z m-196 -28
c5 0 9 -5 9 -12 0 -7 -9 -3 -21 9 -14 14 -19 26 -13 34 7 11 10 8 12 -8 2 -13
8 -23 13 -23z m143 18 c-3 -4 -9 -8 -15 -8 -5 0 -9 4 -9 8 0 5 7 9 15 9 8 0
12 -4 9 -9z m-6 -48 c-2 -9 -16 -16 -35 -18 -26 -3 -31 0 -28 15 2 10 4 18 4
19 1 1 15 1 31 0 21 -1 30 -6 28 -16z"/>
</g>
</svg>
