<svg width="24" height="25" viewBox="0 0 24 25" fill="none" xmlns="http://www.w3.org/2000/svg">
<path d="M8.38 12.4619L10.79 14.8819L15.62 10.0419" stroke="#00E6F6" stroke-width="2" stroke-linecap="round" stroke-linejoin="round"/>
<path d="M10.75 2.91192C11.44 2.32192 12.57 2.32192 13.27 2.91192L14.85 4.27192C15.15 4.53192 15.71 4.74192 16.11 4.74192H17.81C18.87 4.74192 19.74 5.61192 19.74 6.67192V8.37192C19.74 8.76192 19.95 9.33192 20.21 9.63192L21.57 11.2119C22.16 11.9019 22.16 13.0319 21.57 13.7319L20.21 15.3119C19.95 15.6119 19.74 16.1719 19.74 16.5719V18.2719C19.74 19.3319 18.87 20.2019 17.81 20.2019H16.11C15.72 20.2019 15.15 20.4119 14.85 20.6719L13.27 22.0319C12.58 22.6219 11.45 22.6219 10.75 22.0319L9.17 20.6719C8.87 20.4119 8.31 20.2019 7.91 20.2019H6.18C5.12 20.2019 4.25 19.3319 4.25 18.2719V16.5619C4.25 16.1719 4.04 15.6119 3.79 15.3119L2.44 13.7219C1.86 13.0319 1.86 11.9119 2.44 11.2219L3.79 9.63192C4.04 9.33192 4.25 8.77192 4.25 8.38192V6.66192C4.25 5.60192 5.12 4.73192 6.18 4.73192H7.91C8.3 4.73192 8.87 4.52192 9.17 4.26192L10.75 2.91192Z" stroke="#00E6F6" stroke-width="2" stroke-linecap="round" stroke-linejoin="round"/>
</svg>
